<svg id="changeColor" fill="#DC7633" xmlns="http://www.w3.org/2000/svg" xmlns:xlink="http://www.w3.org/1999/xlink" width="200" zoomAndPan="magnify" viewBox="0 0 375 374.9999" height="200" preserveAspectRatio="xMidYMid meet" version="1.0"><defs><path id="pathAttribute" d="M 7.09375 7.09375 L 367.84375 7.09375 L 367.84375 367.84375 L 7.09375 367.84375 Z M 7.09375 7.09375 " fill="#000000"></path></defs><g><path id="pathAttribute" d="M 187.46875 7.09375 C 87.851562 7.09375 7.09375 87.851562 7.09375 187.46875 C 7.09375 287.085938 87.851562 367.84375 187.46875 367.84375 C 287.085938 367.84375 367.84375 287.085938 367.84375 187.46875 C 367.84375 87.851562 287.085938 7.09375 187.46875 7.09375 " fill-opacity="1" fill-rule="nonzero" fill="#000000"></path></g><g id="inner-icon" transform="translate(85, 75)"> <svg role="img" viewBox="0 0 24 24" xmlns="http://www.w3.org/2000/svg" id="IconChangeColor" height="247" width="247" transform="rotate(0)"><title>Nike</title><path d="M24 7.8L6.442 15.276c-1.456.616-2.679.925-3.668.925-1.12 0-1.933-.392-2.437-1.177-.317-.504-.41-1.143-.28-1.918.13-.775.476-1.6 1.036-2.478.467-.71 1.232-1.643 2.297-2.8a6.122 6.122 0 00-.784 1.848c-.28 1.195-.028 2.072.756 2.632.373.261.886.392 1.54.392.522 0 1.11-.084 1.764-.252L24 7.8z" id="mainIconPathAttribute" fill="#ffffff" filter="url(#shadow)"></path><filter id="shadow"><feDropShadow id="shadowValue" stdDeviation="0.5" dx="0.3" dy="0.6" flood-color="black"></feDropShadow></filter><filter id="shadow"><feDropShadow id="shadowValue" stdDeviation=".5" dx="0" dy="0" flood-color="black"></feDropShadow></filter></svg> </g></svg>